

<svg width="269.000000" height="35.000000" viewBox="0 0 269 35" fill="" xmlns="http://www.w3.org/2000/svg" xmlns:xlink="http://www.w3.org/1999/xlink">

	<defs/>
	<path id="Vector" d="M268.14 15.699C267.691 14.2896 266.793 13.3109 265.503 13.3109C264.819 13.3109 264.233 13.6828 264.233 14.3484C264.233 16.0905 269 15.5424 269 18.694C269 20.2404 267.828 21.2583 265.972 21.2583C264.624 21.2583 264.019 20.8471 263.726 20.8471C263.413 20.8471 263.237 20.9842 263.061 21.2583L262.846 21.2583L262.846 18.3612L263.12 18.3612C263.589 20.025 264.683 20.8471 265.914 20.8471C267.007 20.8471 267.457 20.2599 267.457 19.6531C267.457 19.105 267.027 18.3611 265.191 17.7935C263.823 17.3628 262.827 16.4037 262.827 15.2292C262.827 13.7415 264.077 12.8998 265.542 12.8998C266.675 12.8998 267.261 13.3109 267.554 13.3109C267.75 13.3109 268.004 13.1347 268.121 12.8998L268.394 12.8998L268.394 15.699L268.121 15.699L268.14 15.699ZM254.661 14.1526C254.661 13.5849 254.485 13.5262 253.665 13.5262L253.665 13.1151L260.659 13.1151L261.44 15.2879L261.108 15.2879C259.975 14.0155 259.135 13.5262 257.357 13.5262C256.771 13.5262 256.634 13.5849 256.634 14.0352L256.634 16.7169L257.162 16.7169C258.627 16.7169 259.154 16.2862 259.467 15.1118L259.799 15.1118L259.799 18.6353L259.467 18.6353C259.233 17.4999 258.588 17.1279 257.162 17.1279L256.634 17.1279L256.634 20.1425C256.634 20.4753 256.771 20.6122 257.826 20.6122C259.428 20.6122 260.326 20.2012 261.205 18.7135L261.577 18.7135L260.952 21.0234L253.645 21.0234L253.645 20.6122C254.466 20.6122 254.642 20.5536 254.642 19.9859L254.642 14.1526L254.661 14.1526ZM252.219 18.3024L252.219 21.2583L251.946 21.2583C251.809 20.9059 251.614 20.7102 251.34 20.7102C250.989 20.7102 249.953 21.2583 248.508 21.2583C245.948 21.2583 244.151 19.4182 244.151 17.2259C244.151 14.779 245.909 12.8998 248.723 12.8998C249.895 12.8998 250.871 13.3109 251.34 13.3109C251.555 13.3109 251.809 13.1934 251.946 12.9781L252.219 12.9781L252.219 15.4641L251.887 15.4641C251.262 14.27 250.363 13.3109 248.918 13.3109C247.375 13.3109 246.3 14.4658 246.3 17.0692C246.3 19.9076 247.648 20.8276 248.84 20.8276C250.149 20.8276 251.203 19.7314 251.887 18.3024L252.219 18.3024ZM241.846 14.6028C241.846 13.6632 241.299 13.5262 240.576 13.5262L240.576 13.1151L243.448 13.1151L243.448 13.5262C242.921 13.5262 242.393 13.6436 242.393 14.6224L242.393 21.2583L241.924 21.2583L235.751 14.2505L235.751 19.477C235.751 20.4165 236.044 20.6122 236.943 20.6122L236.943 21.0234L234.071 21.0234L234.071 20.6122C234.852 20.6122 235.185 20.4557 235.185 18.8701L235.185 14.4462C235.185 13.6436 235.048 13.5262 234.11 13.5262L234.11 13.1151L237.197 13.1151L241.807 18.4199L241.807 14.6028L241.846 14.6028ZM226.198 14.1526C226.198 13.5849 226.023 13.5262 225.202 13.5262L225.202 13.1151L232.196 13.1151L232.977 15.2879L232.645 15.2879C231.512 14.0155 230.672 13.5262 228.894 13.5262C228.308 13.5262 228.171 13.5849 228.171 14.0352L228.171 16.7169L228.699 16.7169C230.164 16.7169 230.691 16.2862 231.004 15.1118L231.336 15.1118L231.336 18.6353L231.004 18.6353C230.77 17.4999 230.125 17.1279 228.699 17.1279L228.171 17.1279L228.171 20.1425C228.171 20.4753 228.308 20.6122 229.363 20.6122C230.965 20.6122 231.864 20.2012 232.743 18.7135L233.114 18.7135L232.489 21.0234L225.183 21.0234L225.183 20.6122C226.003 20.6122 226.179 20.5536 226.179 19.9859L226.179 14.1526L226.198 14.1526ZM218.15 20.1621C218.15 20.4165 218.208 20.6318 219.263 20.6318C221.51 20.6318 222.35 18.7527 222.35 17.2454C222.35 14.5245 220.846 13.5262 219.166 13.5262C218.287 13.5262 218.169 13.7415 218.169 14.2113L218.169 20.1621L218.15 20.1621ZM216.177 14.1526C216.177 13.5849 216.001 13.5262 215.18 13.5262L215.18 13.1151L219.595 13.1151C222.311 13.1151 224.499 14.6028 224.499 17.0888C224.499 19.1246 222.643 21.0625 219.908 21.0625L215.18 21.0625L215.18 20.6515C216.001 20.6515 216.177 20.5927 216.177 20.025L216.177 14.1917L216.177 14.1526ZM210.805 14.1526C210.805 13.5849 210.629 13.5262 209.808 13.5262L209.808 13.1151L213.774 13.1151L213.774 13.5262C212.953 13.5262 212.778 13.5849 212.778 14.1526L212.778 19.9859C212.778 20.5536 212.953 20.6122 213.774 20.6122L213.774 21.0234L209.808 21.0234L209.808 20.6122C210.629 20.6122 210.805 20.5536 210.805 19.9859L210.805 14.1526ZM207.464 15.699C207.015 14.2896 206.116 13.3109 204.827 13.3109C204.143 13.3109 203.557 13.6828 203.557 14.3484C203.557 16.0905 208.324 15.5424 208.324 18.694C208.324 20.2404 207.151 21.2583 205.296 21.2583C203.948 21.2583 203.342 20.8471 203.049 20.8471C202.737 20.8471 202.561 20.9842 202.385 21.2583L202.17 21.2583L202.17 18.3612L202.444 18.3612C202.912 20.025 204.006 20.8471 205.237 20.8471C206.331 20.8471 206.78 20.2599 206.78 19.6531C206.78 19.105 206.351 18.3611 204.514 17.7935C203.147 17.3628 202.151 16.4037 202.151 15.2292C202.151 13.7415 203.401 12.8998 204.866 12.8998C205.999 12.8998 206.585 13.3109 206.878 13.3109C207.073 13.3109 207.327 13.1347 207.445 12.8998L207.718 12.8998L207.718 15.699L207.445 15.699L207.464 15.699ZM193.965 14.1526C193.965 13.5849 193.789 13.5262 192.969 13.5262L192.969 13.1151L199.963 13.1151L200.744 15.2879L200.412 15.2879C199.279 14.0155 198.439 13.5262 196.661 13.5262C196.075 13.5262 195.938 13.5849 195.938 14.0352L195.938 16.7169L196.466 16.7169C197.931 16.7169 198.458 16.2862 198.771 15.1118L199.103 15.1118L199.103 18.6353L198.771 18.6353C198.536 17.4999 197.892 17.1279 196.466 17.1279L195.938 17.1279L195.938 20.1425C195.938 20.4753 196.075 20.6122 197.13 20.6122C198.732 20.6122 199.63 20.2012 200.51 18.7135L200.881 18.7135L200.256 21.0234L192.949 21.0234L192.949 20.6122C193.77 20.6122 193.946 20.5536 193.946 19.9859L193.946 14.1526L193.965 14.1526ZM186.249 16.8344L186.933 16.8344C187.87 16.8344 188.71 16.4037 188.71 15.1901C188.71 14.4854 188.32 13.5262 186.679 13.5262L186.229 13.5262L186.229 16.8344L186.249 16.8344ZM184.276 14.1526C184.276 13.5849 184.1 13.5262 183.279 13.5262L183.279 13.1151L187.245 13.1151C189.804 13.1151 190.703 14.3092 190.703 15.3271C190.703 16.345 189.941 16.9714 188.652 17.0497L188.652 17.0888C189.062 17.0888 189.355 17.2845 189.687 17.7935L190.996 19.8293C191.465 20.5927 191.699 20.6318 192.168 20.6318L192.168 21.0429L189.433 21.0429L187.577 17.7348C187.362 17.3433 187.069 17.2259 186.229 17.2259L186.229 20.0054C186.229 20.5731 186.405 20.6318 187.226 20.6318L187.226 21.0429L183.26 21.0429L183.26 20.6318C184.08 20.6318 184.256 20.5731 184.256 20.0054L184.256 14.1722L184.276 14.1526ZM107.405 17.6369L110.061 17.6369L111.175 16.0318L108.518 16.0318L107.405 17.6369ZM42.2547 19.9859C42.2547 20.5536 42.0789 20.6122 41.2584 20.6122L41.2584 21.0234L45.2436 21.0234L45.2436 20.6122C44.4231 20.6122 44.2473 20.5536 44.2473 19.9859L44.2473 13.8785C44.2473 13.5849 44.384 13.4675 44.6575 13.4675C45.3413 13.4675 46.4938 14.0939 47.1581 15.3271L47.4706 15.2097L47.0018 12.8802L46.6697 12.8802C46.4548 12.9977 46.1617 13.0956 45.8883 13.0956L40.6333 13.0956C40.4966 13.0956 40.3597 13.0956 40.223 13.0368C40.0863 12.9977 39.9691 12.939 39.8519 12.8802L39.5198 12.8802L39.051 15.2097L39.3635 15.3271C40.0276 14.0939 41.1803 13.4675 41.864 13.4675C42.1375 13.4675 42.2742 13.5849 42.2742 13.8785L42.2742 19.9859L42.2547 19.9859ZM55.2651 19.9859C55.2651 20.5536 55.0894 20.6122 54.2689 20.6122L54.2689 21.0234L58.254 21.0234L58.254 20.6122C57.4336 20.6122 57.2578 20.5536 57.2578 19.9859L57.2578 14.133C57.2578 13.5653 57.4336 13.5066 58.254 13.5066L58.254 13.0956L54.2689 13.0956L54.2689 13.5066C55.0894 13.5066 55.2651 13.5653 55.2651 14.133L55.2651 16.5603L51.2214 16.5603L51.2214 14.133C51.2214 13.5653 51.3972 13.5066 52.2177 13.5066L52.2177 13.0956L48.2325 13.0956L48.2325 13.5066C49.053 13.5066 49.2288 13.5653 49.2288 14.133L49.2288 19.9859C49.2288 20.5536 49.053 20.6122 48.2325 20.6122L48.2325 21.0234L52.2177 21.0234L52.2177 20.6122C51.3972 20.6122 51.2214 20.5536 51.2214 19.9859L51.2214 17.1279L55.2651 17.1279L55.2651 19.9859ZM60.5006 19.9859C60.5006 20.5536 60.3248 20.6122 59.5043 20.6122L59.5043 21.0234L66.83 21.0234L67.4551 18.7135L67.084 18.7135C66.1853 20.2012 65.2867 20.6122 63.6848 20.6122C62.6299 20.6122 62.4737 20.4557 62.4737 20.1425L62.4737 17.1279L63.0011 17.1279C64.4272 17.1279 65.0914 17.5195 65.3063 18.6353L65.6384 18.6353L65.6384 15.0922L65.3063 15.0922C64.9742 16.2667 64.4662 16.6973 63.0011 16.6973L62.4737 16.6973L62.4737 14.0156C62.4737 13.5653 62.6104 13.5066 63.1965 13.5066C64.9937 13.5066 65.8337 13.996 66.9667 15.2684L67.2989 15.2684L66.5175 13.0956L59.5043 13.0956L59.5043 13.5066C60.3248 13.5066 60.5006 13.5653 60.5006 14.133L60.5006 19.9859ZM76.793 16.8344L76.0897 16.8344L76.0897 13.5066L76.5391 13.5066C78.18 13.5066 78.5707 14.4658 78.5707 15.1705C78.5707 16.3841 77.7307 16.8344 76.7734 16.8344L76.793 16.8344ZM80.8563 19.8097L79.5474 17.774C79.2153 17.265 78.9223 17.0692 78.5121 17.0692L78.5121 17.0301C79.8014 16.9518 80.5633 16.2863 80.5633 15.3075C80.5633 14.3288 79.6647 13.0956 77.1055 13.0956L73.1204 13.0956L73.1204 13.5066C73.9409 13.5066 74.1166 13.5653 74.1166 14.133L74.1166 19.9859C74.1166 20.5536 73.9409 20.6122 73.1204 20.6122L73.1204 21.0234L77.1055 21.0234L77.1055 20.6122C76.285 20.6122 76.1093 20.5536 76.1093 19.9859L76.1093 17.2063C76.9493 17.2063 77.2422 17.3237 77.4572 17.7152L79.313 21.0429L82.048 21.0429L82.048 20.6318C81.5791 20.6318 81.3447 20.5927 80.8758 19.8293L80.8563 19.8097ZM84.0796 19.9859C84.0796 20.5536 83.9038 20.6122 83.0833 20.6122L83.0833 21.0234L87.0685 21.0234L87.0685 20.6122C86.248 20.6122 86.0722 20.5536 86.0722 19.9859L86.0722 14.133C86.0722 13.5653 86.248 13.5066 87.0685 13.5066L87.0685 13.0956L83.0833 13.0956L83.0833 13.5066C83.9038 13.5066 84.0796 13.5653 84.0796 14.133L84.0796 19.9859ZM91.0537 19.9859C91.0537 20.5536 90.8583 20.6122 90.0574 20.6122L90.0574 21.0234L94.0426 21.0234L94.0426 20.6122C93.2221 20.6122 93.0463 20.5536 93.0463 19.9859L93.0463 13.8785C93.0463 13.5849 93.183 13.4675 93.4565 13.4675C94.1403 13.4675 95.2928 14.0939 95.957 15.3271L96.2696 15.2097L95.8008 12.8802L95.4686 12.8802C95.2537 12.9977 94.9607 13.0956 94.6873 13.0956L89.4323 13.0956C89.2955 13.0956 89.1588 13.0956 89.022 13.0368C88.8853 12.9977 88.7681 12.939 88.6509 12.8802L88.3188 12.8802L87.8304 15.2097L88.1429 15.3271C88.8071 14.0939 89.9597 13.4675 90.6434 13.4675C90.9169 13.4675 91.0537 13.5849 91.0537 13.8785L91.0537 19.9859ZM97.012 21.0429L103.927 21.0429L104.767 18.6548L104.435 18.6548C103.283 20.2012 102.56 20.671 101.427 20.671L99.4929 20.671L104.513 13.3109L104.513 13.0956L97.7152 13.0956L96.9729 15.3271L97.2463 15.3271C98.1645 14.1135 99.1217 13.5262 100.177 13.5262L101.993 13.5262L97.0315 20.7689L97.0315 21.0429L97.012 21.0429ZM121.255 18.3024C120.552 19.7314 119.517 20.8471 118.208 20.8471C116.996 20.8471 115.668 19.9272 115.668 17.0692C115.668 14.4658 116.743 13.2913 118.286 13.2913C119.731 13.2913 120.63 14.27 121.255 15.4641L121.587 15.4641L121.587 12.9781L121.314 12.9781C121.197 13.1739 120.923 13.3109 120.708 13.3109C120.239 13.3109 119.263 12.8998 118.09 12.8998C115.258 12.8998 113.5 14.779 113.5 17.2259C113.5 19.4378 115.297 21.2778 117.876 21.2778C119.321 21.2778 120.357 20.7297 120.708 20.7297C120.982 20.7297 121.177 20.9059 121.314 21.2778L121.587 21.2778L121.587 18.3221L121.255 18.3221L121.255 18.3024ZM125.104 18.5373L126.686 15.1901L128.327 18.5373L125.123 18.5373L125.104 18.5373ZM131.081 19.751L127.741 13.2913C127.604 13.0368 127.545 12.9585 127.487 12.9585C127.389 12.9585 127.116 13.5849 126.139 14.2505C126.276 14.3092 126.393 14.4658 126.393 14.6028C126.393 14.7007 126.393 14.779 126.276 14.9943L124.264 19.1833C123.756 20.2599 123.443 20.6122 122.681 20.6122L122.681 21.0234L125.553 21.0234L125.553 20.6122C124.791 20.6122 124.478 20.3969 124.478 20.0838C124.478 19.9076 124.576 19.5944 124.947 18.9876L128.561 18.9876C129.05 19.751 129.147 20.1425 129.147 20.2795C129.147 20.534 128.893 20.6122 128.073 20.6122L128.073 21.0234L132.371 21.0234L132.371 20.6122C131.667 20.6122 131.472 20.4557 131.101 19.751L131.081 19.751ZM136.961 16.8344L136.258 16.8344L136.258 13.5066L136.708 13.5066C138.349 13.5066 138.739 14.4658 138.739 15.1705C138.739 16.3841 137.899 16.8344 136.942 16.8344L136.961 16.8344ZM141.025 19.8097L139.716 17.774C139.384 17.265 139.091 17.0692 138.681 17.0692L138.681 17.0301C139.97 16.9518 140.732 16.2863 140.732 15.3075C140.732 14.3288 139.833 13.0956 137.274 13.0956L133.289 13.0956L133.289 13.5066C134.109 13.5066 134.285 13.5653 134.285 14.133L134.285 19.9859C134.285 20.5536 134.09 20.6122 133.289 20.6122L133.289 21.0234L137.274 21.0234L137.274 20.6122C136.454 20.6122 136.278 20.5536 136.278 19.9859L136.278 17.2063C137.118 17.2063 137.411 17.3237 137.626 17.7152L139.482 21.0429L142.216 21.0429L142.216 20.6318C141.748 20.6318 141.513 20.5927 141.044 19.8293L141.025 19.8097ZM143.896 19.9859C143.896 20.5536 143.701 20.6122 142.9 20.6122L142.9 21.0234L150.402 21.0234L151.007 18.7135L150.636 18.7135C149.542 20.3186 148.839 20.6122 146.924 20.6122C146.045 20.6122 145.87 20.4557 145.87 20.0642L145.87 14.133C145.87 13.5653 146.065 13.5066 146.866 13.5066L146.866 13.0956L142.881 13.0956L142.881 13.5066C143.701 13.5066 143.877 13.5653 143.877 14.133L143.877 19.9859L143.896 19.9859ZM153.254 19.9859C153.254 20.5536 153.078 20.6122 152.258 20.6122L152.258 21.0234L156.243 21.0234L156.243 20.6122C155.422 20.6122 155.246 20.5536 155.246 19.9859L155.246 13.8785C155.246 13.5849 155.383 13.4675 155.657 13.4675C156.34 13.4675 157.493 14.0939 158.157 15.3271L158.47 15.2097L158.001 12.8802L157.669 12.8802C157.454 12.9977 157.161 13.0956 156.887 13.0956L151.632 13.0956C151.496 13.0956 151.359 13.0956 151.222 13.0368C151.085 12.9977 150.968 12.939 150.851 12.8802L150.519 12.8802L150.031 15.2097L150.343 15.3271C151.007 14.0939 152.16 13.4675 152.844 13.4675C153.117 13.4675 153.254 13.5849 153.254 13.8785L153.254 19.9859ZM163.51 20.8863C162.025 20.8863 161.341 19.5552 161.341 17.0692C161.341 14.5832 162.025 13.2522 163.51 13.2522C164.995 13.2522 165.678 14.5832 165.678 17.0692C165.678 19.5552 164.995 20.8863 163.51 20.8863ZM163.51 12.8802C161.38 12.8802 159.193 14.27 159.193 17.0692C159.193 19.8684 161.38 21.2583 163.51 21.2583C165.639 21.2583 167.827 19.8684 167.827 17.0692C167.827 14.27 165.639 12.8802 163.51 12.8802ZM176.266 18.4199L171.637 13.0956L168.53 13.0956L168.53 13.5066C169.468 13.5066 169.605 13.6241 169.605 14.4266L169.605 18.8701C169.605 20.4557 169.273 20.6122 168.491 20.6122L168.491 21.0234L171.363 21.0234L171.363 20.6122C170.445 20.6122 170.152 20.4165 170.152 19.477L170.152 14.2309L176.344 21.2583L176.813 21.2583L176.813 14.6028C176.813 13.6045 177.341 13.5066 177.868 13.5066L177.868 13.0956L174.997 13.0956L174.997 13.5066C175.719 13.5066 176.266 13.6436 176.266 14.5833L176.266 18.4003L176.266 18.4199ZM11.4281 32.8857C7.11084 32.8857 4.2392 32.827 4.2392 32.827L3.63361 30.4976C3.63361 30.4976 7.56012 29.9495 11.4281 29.9495C15.2961 29.9495 19.2227 30.4976 19.2227 30.4976L18.6171 32.827C18.6171 32.827 15.7454 32.8857 11.4281 32.8857ZM22.4265 24.1357L22.2701 24.077C22.0552 24.4098 21.2739 25.134 20.1213 25.134L20.0627 25.2515C20.5511 25.7408 20.4534 26.8566 19.8478 26.8566C19.4571 26.8566 19.3008 26.5239 19.2422 26.2498L19.125 26.1911C18.9688 26.3085 18.5194 26.6413 18.4022 26.7392C18.4022 27.072 18.4608 27.5222 18.5194 27.7962L18.6366 27.7962C18.7538 27.5809 18.9688 27.5222 19.0859 27.5222C19.3594 27.5222 19.5743 27.7375 19.5743 28.0703C19.5743 28.6183 19.1837 29.1273 18.4218 29.1273C17.6013 29.1273 16.8785 28.7358 16.8785 27.8549C16.8785 27.4047 17.0933 26.9154 17.6989 26.6413L17.6989 26.5239C17.2496 26.1911 16.8785 25.643 16.7612 25.369L16.644 25.369C16.4878 25.5843 15.9212 26.0932 15.4328 26.1911L15.4328 26.3085C15.8821 26.7588 15.9212 27.1894 15.9212 27.4634C15.9212 28.1877 15.3156 28.6183 14.0458 28.6183C13.1082 28.6183 12.1705 28.3443 12.1705 27.4047C12.1705 26.9153 12.5026 26.6217 12.8932 26.6217C13.1667 26.6217 13.4989 26.7392 13.7137 27.072L13.831 27.072C14.0458 26.7979 14.1631 26.6218 14.5538 26.289L14.5538 26.1715C14.3975 26.054 14.1045 25.7213 13.831 25.3494L13.7137 25.3494C13.3231 25.7996 13.0496 25.8387 12.7175 25.8387C12.5026 25.8387 12.1705 25.7213 12.1705 25.3494C12.1705 24.86 12.7761 24.6251 13.284 24.4685L13.284 24.351C12.4635 24.0183 11.6821 23.1374 11.5063 22.5697L11.389 22.5697C11.2328 23.1178 10.4514 24.0183 9.61133 24.351L9.61133 24.4685C10.0997 24.6251 10.7249 24.86 10.7249 25.3494C10.7249 25.7409 10.3928 25.8387 10.1779 25.8387C9.84583 25.8387 9.57227 25.78 9.18158 25.3494L9.06439 25.3494C8.79089 25.7409 8.5174 26.0736 8.34155 26.1715L8.34155 26.289C8.7323 26.6218 8.82996 26.7784 9.06439 27.072L9.18158 27.072C9.39648 26.7392 9.72852 26.6217 10.002 26.6217C10.3927 26.6217 10.7249 26.8958 10.7249 27.4047C10.7249 28.3443 9.78717 28.6183 8.84943 28.6183C7.57965 28.6183 6.97406 28.1681 6.97406 27.4634C6.97406 27.1894 7.03271 26.7392 7.46246 26.3085L7.46246 26.1911C6.97406 26.0736 6.40759 25.5843 6.25128 25.369L6.13409 25.369C6.01691 25.643 5.64569 26.1911 5.19635 26.5239L5.19635 26.6413C5.80194 26.9154 6.01691 27.4243 6.01691 27.8549C6.01691 28.7358 5.29407 29.1273 4.47357 29.1273C3.6922 29.1273 3.32098 28.6379 3.32098 28.0703C3.32098 27.7375 3.53589 27.5222 3.80939 27.5222C3.92657 27.5222 4.14154 27.5809 4.25873 27.7962L4.37592 27.7962C4.43451 27.5222 4.49316 27.072 4.49316 26.7392C4.37592 26.6217 3.94617 26.289 3.77032 26.1911L3.65308 26.2498C3.59448 26.5239 3.43817 26.8566 3.04749 26.8566C2.44189 26.8566 2.32471 25.7408 2.83264 25.2515L2.77405 25.134C1.62146 25.134 0.840027 24.4098 0.625122 24.077L0.468872 24.1357L2.79358 29.4601C2.79358 29.4601 2.30518 29.6754 2.40283 30.0669C2.61774 30.8499 3.28198 31.8482 3.28198 33.0619C3.28198 33.5512 3.22333 33.6099 3.22333 33.8448C3.22333 34.0797 3.37958 34.1776 3.61401 34.1776L19.3204 34.1776C19.5353 34.1776 19.7111 34.0602 19.7111 33.8448C19.7111 33.6295 19.6524 33.5708 19.6524 33.0619C19.6524 31.8482 20.3167 30.8499 20.5316 30.0669C20.6487 29.6754 20.1408 29.4601 20.1408 29.4601L22.4655 24.1357L22.4265 24.1357ZM4.45404 5.69626C4.51263 5.81372 4.66895 5.91162 4.78613 5.91162C5.00104 5.69629 5.23547 5.42221 5.23547 5.1286C4.96198 5.18732 4.45404 5.28519 4.45404 5.67667L4.45404 5.69626ZM15.1203 3.4256L15.2766 3.54303C15.2766 3.54303 16.2729 3.09283 16.2729 2.38812C16.2729 2.38812 16.2728 1.99664 16.058 1.78131C15.9407 1.78131 15.9407 1.99667 15.9407 2.11411C15.9407 2.32944 15.7845 2.50558 15.4915 2.50558C15.2766 2.50558 14.8858 2.29025 14.8858 1.89874C14.8858 1.50726 15.0422 1.35068 15.0422 1.23322C15.0422 1.23322 15.0422 1.1745 14.9835 1.1745C14.1044 1.50726 14.0458 1.89877 14.0458 2.17282C14.0458 2.56433 14.2021 2.95581 15.1008 3.44519L15.1203 3.4256ZM3.00842 22.5306C5.60663 22.5306 5.54797 19.5356 5.54797 18.5373C5.54797 14.0547 6.8764 12.9389 9.96295 11.51C12.2877 10.3942 14.3779 9.96362 14.3779 7.75165C14.3779 6.96866 14.163 6.14651 13.2644 6.14651C13.2644 6.14651 13.5966 6.47925 13.5966 7.02734C13.5966 7.24268 13.5379 7.4776 13.4402 7.75165C13.4402 7.53635 13.3817 7.26224 13.2254 7.02734C12.9519 7.47757 13.0105 8.14316 12.8347 8.41721C12.8347 8.41721 12.7174 8.69122 11.9556 9.08273C11.9556 9.08273 11.8384 9.20016 12.2291 9.20016C12.2291 9.20016 13.1667 9.20016 13.4988 8.80865C13.2253 9.59164 12.8932 9.86572 12.3853 9.86572C12.1118 9.86572 11.6626 9.80698 11.2719 9.80698C10.6077 9.80698 9.06439 10.1397 8.4588 11.1968C8.00946 11.9211 6.73969 12.5866 6.30988 12.5866C5.91919 12.5866 5.37219 11.7057 5.37219 11.3142C5.37219 10.864 6.15363 11.1577 6.75922 10.5312C7.75555 9.53293 8.14624 9.31763 9.20111 9.31763C9.20111 9.31763 9.8067 9.31763 9.25977 8.76953L7.54065 7.16437C7.32574 6.94907 7.1499 6.83163 6.93506 6.83163C6.81781 6.83163 6.60291 6.89038 6.11456 7.32101C5.11823 7.43848 4.72754 7.59503 4.45404 7.77121C4.29773 7.88864 4.18054 7.98654 4.06335 7.98654C3.9071 7.98654 3.67261 7.10565 3.67261 6.9295C3.67261 6.47928 4.16101 6.2052 4.16101 5.93115C4.16101 5.77457 4.00476 5.71588 4.00476 5.71588L3.28198 6.04861C3.28198 6.04861 2.89124 5.59839 3.34058 5.38306C3.34058 5.38306 4.45404 4.77631 6.54431 3.77798C6.6615 4.3848 6.81781 4.50223 7.32568 4.44351L7.11084 4.50223L6.99365 4.65881C7.1499 4.71753 7.48199 4.65881 7.81409 4.54138C8.08759 4.42392 8.41968 4.42395 8.47827 4.3848C8.53687 4.32608 8.69318 4.16943 8.69318 4.11072C8.57599 4.11072 8.2439 4.16943 8.02899 4.22815C8.36108 4.01285 8.5174 3.83667 8.5174 3.7388C8.5174 3.68005 8.4588 3.62134 8.4588 3.62134C8.30249 3.62134 8.18524 3.7388 8.00946 3.68008C7.89227 3.62134 7.79462 3.5235 7.79462 3.34732C7.79462 3.22989 7.9118 3.13199 8.28296 3.13199L8.55646 3.13199C8.55646 2.91666 8.00946 2.79926 7.77502 2.79926C7.50153 2.79926 7.11084 2.91666 6.77875 3.07324C6.77875 3.07324 6.83734 2.62305 7.32568 2.40771C7.59918 2.29028 9.04486 2.13364 10.4123 2.13364C12.4049 2.13364 13.8895 3.85623 14.163 3.85623C14.2803 3.85623 14.3779 3.73883 14.2216 3.64093C13.4988 3.15158 13.0691 2.76004 13.0691 2.2511C13.0691 2.09448 13.0691 1.03751 15.3351 0.645996C16.3315 1.46814 16.6636 2.09451 16.6636 2.64261C16.6636 3.58221 15.6086 3.69962 15.511 4.09113C18.1091 4.24771 20.0432 7.6929 20.0432 9.41547C20.0432 12.5083 17.1129 13.8003 15.2961 14.1722C17.9529 12.1756 18.9492 10.1789 18.9492 8.80865C18.9492 6.53799 16.8979 5.20694 16.4095 4.93289C17.5621 6.20526 17.8552 7.53632 17.8552 8.53464C17.8552 10.4725 16.644 11.4121 16.644 11.4121C16.8589 10.9619 16.9175 10.59 16.9175 10.2572C16.9175 9.98318 16.8589 9.76785 16.8589 9.76785C15.804 12.2539 13.3817 13.9764 13.2058 16.0905C13.0496 15.6011 12.9909 15.0922 12.9909 14.642C12.9909 12.8607 14.1044 11.7645 14.1044 11.7645C11.9556 13.2522 11.4477 14.9748 11.4477 16.3058C11.4477 17.6369 11.9946 18.6353 11.9946 18.6353C11.8774 18.1459 11.936 17.3041 12.0533 16.6386C12.2681 18.5178 13.2058 20.8472 15.804 22.3348C11.2718 22.3348 9.39648 16.9126 11.2719 13.4675C8.12671 14.2896 7.73602 17.5586 7.67737 19.4573C7.46252 18.459 7.40387 17.6761 7.40387 17.0692C7.40387 13.6828 10.2169 12.8019 12.3267 11.8623C15.4133 10.4725 16.7026 9.37637 16.7026 7.37973C16.7026 5.26566 14.2216 3.95416 12.3853 4.32608L13.0496 4.99161C13.1668 5.10907 13.3231 5.20691 13.3231 5.20691C15.257 6.20523 15.5305 7.32098 15.5305 7.96695C15.5305 9.74826 13.538 10.6879 12.1119 11.2947C7.46246 13.2913 6.64197 14.1722 6.64197 17.0497C6.64197 19.1638 7.24762 22.4719 5.0401 22.7459C5.19641 23.02 5.97778 23.1374 5.97778 23.1374C5.3136 23.6855 4.59082 23.8617 3.77032 23.8617C2.98895 23.8617 1.44562 23.6464 0.996338 21.9825C1.44562 22.2566 2.05121 22.5893 2.98889 22.5893L3.00842 22.5306ZM6.54431 10.3355C6.32941 10.5508 6.09503 10.5508 5.99731 10.5508C5.88013 10.2768 5.99731 9.88531 5.99731 9.88531C6.21222 9.88531 6.54431 10.0419 6.54431 10.3355ZM5.93872 9.61124C5.72382 9.944 5.54797 10.3942 4.88379 10.3942C4.2196 10.3942 3.67261 9.90485 3.22333 9.90485C3.00842 9.90485 2.89124 9.96356 2.77405 9.96356C2.6568 9.96356 2.61774 9.90485 2.61774 9.84613C2.61774 9.68951 2.83258 9.51337 3.16467 9.51337C3.49677 9.51337 3.77032 9.66995 4.2782 9.78738C5.00104 10.0027 5.43085 9.3959 5.72388 9.18057C6.05597 8.90652 6.32941 8.84784 6.60291 8.84784C7.1499 8.84784 7.54065 9.12186 7.54065 9.12186C7.26715 9.12186 6.66156 9.3959 6.21222 9.66995C6.05597 9.61124 5.99731 9.55252 5.93872 9.61124ZM4.78613 7.94736C4.90338 7.88864 5.27454 7.82993 5.27454 7.82993C5.39172 8.04523 5.39172 8.43677 5.33313 8.76953C4.84473 8.76953 4.66895 8.28012 4.78613 7.94736ZM17.1715 2.40771C19.2227 2.85794 18.9492 4.189 19.3204 5.1286C18.4413 4.01282 17.2691 3.30814 17.2691 3.30814C17.3864 2.81879 17.1519 2.42731 17.1519 2.42731L17.1715 2.40771ZM19.7697 12.8802C19.7697 15.2097 16.7808 15.4837 16.7808 17.7544C16.7808 18.6352 17.0543 19.242 16.8979 19.8097C16.8979 19.8097 17.5036 19.1441 17.5622 18.6548C17.5622 20.3773 18.4413 22.374 20.7073 22.374C21.0394 22.374 21.5278 22.3153 21.9771 22.0412C21.9771 22.0412 21.8599 23.6464 20.0432 23.6464C17.7184 23.6464 15.6282 21.7084 15.6282 18.1067C15.6282 17.4411 15.7454 16.6582 16.1166 16.1101C16.1166 16.1101 15.0031 16.7169 14.9054 18.6548C14.9054 18.6548 14.4561 17.9893 14.4561 17.1671C14.4561 14.4071 17.8356 15.3858 19.7697 12.8998L19.7697 12.8802ZM19.5548 24.6251C21.606 24.6251 22.6413 23.5681 22.6413 21.9629C22.6413 21.4148 22.485 21.0234 22.485 21.0234C21.938 21.4736 21.2739 21.5715 20.8832 21.5715C20.0627 21.5715 18.9492 21.082 18.9492 19.751C18.9492 18.0284 20.7659 17.1476 20.7659 15.2097C20.7659 14.6616 20.5511 14.4266 20.5511 14.4266C21.3716 13.3109 21.6646 12.2734 21.6646 11.4317C21.6646 9.88525 20.8441 8.88696 20.8441 8.88696L21.7231 9.33722C21.3325 7.84952 20.512 6.85117 20.512 6.85117C20.512 6.85117 20.9613 7.0665 21.1761 6.96863C20.7269 6.7533 20.0627 5.91162 20.0627 4.42392C20.0627 2.93625 19.7306 2.09451 16.8589 1.60513C16.5268 0.939606 15.7454 0.215332 15.3742 0C14.71 0.332764 13.7137 0.724274 13.3817 0.998322C13.3817 0.998322 12.5612 1.05707 12.2291 1.05707C11.7407 1.05707 11.35 0.900482 11.1155 0.900482C10.4514 0.900482 10.002 1.56601 10.002 1.56601C10.002 1.56601 8.5174 1.62473 7.46246 1.84003C6.91547 1.95749 6.58337 2.38815 6.19269 3.32773L3.47729 4.81543C2.98889 5.08948 2.6568 5.26562 2.6568 5.69626C2.6568 5.91159 2.81311 6.3031 3.1452 6.81204C3.4187 8.47592 3.69214 8.74994 4.08282 8.74994C4.20007 8.74994 4.41498 8.69122 4.41498 8.69122C4.53217 8.80865 4.80573 9.23929 4.86432 9.41547C4.41498 9.6308 3.86798 9.14145 3.2038 9.14145C2.81311 9.14145 2.20752 9.35675 2.20752 10.0223C2.20752 10.2376 2.32471 10.2964 2.42242 10.2964C2.57867 10.2964 2.75452 10.2376 3.1452 10.2376C3.63361 10.2376 4.02429 10.6879 4.80573 10.6879C5.07922 10.6879 5.255 10.6292 5.35272 10.6879C4.96198 10.9619 4.74707 11.1381 4.86432 11.51C5.02057 12.2343 5.68475 13.0564 6.01691 13.0564C6.29041 13.0564 6.79828 12.8998 6.79828 12.8998L6.46613 13.1739C4.25867 15.053 4.74713 17.1671 4.74713 19.2616C4.74713 20.8667 4.29779 21.8651 3.02802 21.8651C2.20752 21.8651 1.0354 21.3757 0.156311 20.2599C0.0391235 20.5927 0 21.0821 0 21.5323C0 23.4702 1.77771 24.7426 3.53589 24.7426C5.07916 24.7426 6.19269 24.2924 7.28668 23.4115C10.4318 23.3528 11.4281 21.2583 11.4281 21.2583C12.9128 23.4115 15.6868 23.2549 16.1361 23.2549C17.0738 24.2532 18.5194 24.6447 19.5548 24.6447L19.5548 24.6251ZM10.3732 19.9076C10.3732 21.6302 8.92761 22.3936 7.44293 22.3936C9.37689 20.2795 7.89221 17.2454 9.76764 15.2488C9.61133 17.0301 10.3732 18.6744 10.3732 19.9076ZM8.32202 5.73547L8.38062 5.73547C8.65411 6.79251 9.8653 6.89032 10.1583 8.12354L10.0997 8.18231C9.49414 7.30145 8.65411 7.18396 8.32202 6.73373C8.16577 6.5184 8.16577 6.24442 8.32202 5.73547ZM13.9677 31.4371C13.9677 31.4371 13.6356 31.8874 13.577 31.8874C13.5184 31.8874 13.1863 31.4958 13.1863 31.4371C13.1863 31.3197 13.5184 30.9869 13.577 30.9869C13.6356 30.9869 13.9677 31.3197 13.9677 31.4371ZM18.2264 31.5546C18.2264 31.5546 17.8943 32.0048 17.8357 32.0048C17.777 32.0048 17.445 31.6133 17.445 31.5546C17.445 31.4371 17.777 31.1044 17.8357 31.1044C17.8943 31.1044 18.2264 31.4371 18.2264 31.5546ZM16.7808 32.3376C16.8979 32.3376 16.9957 32.2788 16.9957 32.1223L16.9957 30.9086C16.9957 30.752 16.8784 30.6933 16.7808 30.6933C16.1166 30.6346 15.0617 30.5758 14.6319 30.5758C14.4561 30.5758 14.3584 30.6933 14.3584 30.8499L14.3584 32.0635C14.3584 32.2201 14.4756 32.3376 14.6319 32.3376L16.7808 32.3376ZM12.4635 32.3963C12.6198 32.3963 12.737 32.2788 12.737 32.1223L12.737 30.7912C12.737 30.6346 12.6198 30.5171 12.4635 30.5171L10.3537 30.5171C10.1974 30.5171 10.0802 30.6346 10.0802 30.7912L10.0802 32.1223C10.0802 32.2788 10.1974 32.3963 10.3537 32.3963L12.4635 32.3963ZM8.86902 31.4567C8.86902 31.3393 9.20111 31.0065 9.25977 31.0065C9.31836 31.0065 9.65039 31.3393 9.65039 31.4567C9.65039 31.5154 9.31836 31.907 9.25977 31.907C9.20111 31.907 8.86902 31.5154 8.86902 31.4567ZM4.61035 31.5742C4.61035 31.4567 4.94238 31.1239 5.00104 31.1239C5.05963 31.1239 5.39172 31.4567 5.39172 31.5742C5.39172 31.6329 5.05963 32.0244 5.00104 32.0244C4.94238 32.0244 4.61035 31.6329 4.61035 31.5742ZM6.05591 32.3571L8.20483 32.3571C8.36108 32.3571 8.47827 32.2397 8.47827 32.0831L8.47827 30.8695C8.47827 30.7129 8.36108 30.5954 8.20483 30.5954C7.75549 30.5954 6.72015 30.6541 6.05591 30.7129C5.93872 30.7129 5.84106 30.7716 5.84106 30.9282L5.84106 32.1418C5.84106 32.2984 5.95825 32.3571 6.05591 32.3571ZM10.8616 31.4763C10.8616 31.3197 11.3109 30.8695 11.4086 30.8695C11.4672 30.8695 11.897 31.3197 11.897 31.4763C11.897 31.535 11.4476 32.0244 11.4086 32.0244C11.2914 32.0244 10.8616 31.535 10.8616 31.4763ZM15.1789 31.4763C15.1789 31.3197 15.6282 30.8695 15.7259 30.8695C15.7845 30.8695 16.2143 31.3197 16.2143 31.4763C16.2143 31.535 15.765 32.0244 15.7259 32.0244C15.6087 32.0244 15.1789 31.535 15.1789 31.4763ZM6.60291 31.4763C6.60291 31.3197 7.05225 30.8695 7.1499 30.8695C7.2085 30.8695 7.63831 31.3197 7.63831 31.4763C7.63831 31.535 7.18896 32.0244 7.1499 32.0244C7.03271 32.0244 6.60291 31.535 6.60291 31.4763Z" fill="#FFFFFF" fill-opacity="1.000000" fill-rule="nonzero"/>
	<path id="Vector" d="M43.3678 32.0243C43.3678 31.1042 42.7817 30.3408 41.7269 30.3408L40.7891 30.3408L40.7891 33.6881L41.7269 33.6881C42.7622 33.6881 43.3678 32.9443 43.3678 32.0243ZM40.2617 34.1775L40.2617 29.8906L41.7269 29.8906C43.0552 29.8906 43.9148 30.8302 43.9148 32.0438C43.9148 33.2574 43.0552 34.1971 41.7269 34.1971L40.2617 34.1971L40.2617 34.1775Z" fill="#FFFFFF" fill-opacity="1.000000" fill-rule="nonzero"/>
	<path id="Vector" d="M45.5952 32.5136L45.5952 29.8906L46.1226 29.8906L46.1226 32.5136C46.1226 33.2966 46.5524 33.786 47.3338 33.786C48.1152 33.786 48.545 33.2966 48.545 32.5136L48.545 29.8906L49.0724 29.8906L49.0724 32.5136C49.0724 33.5902 48.4864 34.2558 47.3338 34.2558C46.1812 34.2558 45.5952 33.5707 45.5952 32.5136Z" fill="#FFFFFF" fill-opacity="1.000000" fill-rule="nonzero"/>
	<path id="Vector" d="M53.5651 32.9638C53.5651 32.5723 53.2916 32.22 52.7642 32.22L51.4553 32.22L51.4553 33.7077L52.7642 33.7077C53.2721 33.7077 53.5651 33.4336 53.5651 32.9638ZM53.4869 31.0651C53.4869 30.6736 53.233 30.3604 52.7446 30.3604L51.4553 30.3604L51.4553 31.7502L52.7446 31.7502C53.233 31.7502 53.4869 31.4566 53.4869 31.0651ZM50.9279 34.1775L50.9279 29.8906L52.8423 29.8906C53.5847 29.8906 54.0339 30.3409 54.0339 30.9868C54.0339 31.5349 53.6823 31.8872 53.2916 31.9655C53.7409 32.0439 54.1317 32.5136 54.1317 33.0226C54.1317 33.7077 53.6823 34.1775 52.9009 34.1775L50.9474 34.1775L50.9279 34.1775Z" fill="#FFFFFF" fill-opacity="1.000000" fill-rule="nonzero"/>
	<path id="Vector" d="M57.3939 30.4387L56.4758 32.7485L58.2925 32.7485L57.3939 30.4387ZM58.8395 34.1775L58.4684 33.2183L56.339 33.2183L55.9678 34.1775L55.3622 34.1775L57.0814 29.8906L57.7455 29.8906L59.4647 34.1775L58.8591 34.1775L58.8395 34.1775Z" fill="#FFFFFF" fill-opacity="1.000000" fill-rule="nonzero"/>
	<path id="Vector" d="M60.8525 34.1766L60.8525 29.8701L61.38 29.8701L61.38 34.1766L60.8525 34.1766Z" fill="#FFFFFF" fill-opacity="1.000000" fill-rule="nonzero"/>
	<path id="Vector" d="M63.3139 34.9999L63.0795 34.8041C63.2944 34.6671 63.4702 34.4127 63.4897 34.1973C63.4897 34.1973 63.4311 34.1973 63.392 34.1973C63.2162 34.1973 63.0795 34.0603 63.0795 33.8646C63.0795 33.6689 63.2358 33.5122 63.4116 33.5122C63.6265 33.5122 63.8218 33.6884 63.8218 34.0016C63.8218 34.3931 63.5873 34.765 63.2943 34.9803L63.3139 34.9999Z" fill="#FFFFFF" fill-opacity="1.000000" fill-rule="nonzero"/>
	<path id="Vector" d="M67.8262 32.0245C67.8262 30.713 68.803 29.8125 70.0338 29.8125C70.7956 29.8125 71.3231 30.1844 71.6552 30.6542L71.2059 30.9087C70.9714 30.5563 70.5222 30.2823 70.0338 30.2823C69.0961 30.2823 68.3928 31.0066 68.3928 32.0245C68.3928 33.0424 69.0961 33.7666 70.0338 33.7666C70.5222 33.7666 70.9714 33.5121 71.2059 33.1402L71.6552 33.3947C71.3036 33.884 70.7761 34.2364 70.0142 34.2364C68.7834 34.2364 67.8068 33.336 67.8068 32.0245L67.8262 32.0245Z" fill="#FFFFFF" fill-opacity="1.000000" fill-rule="nonzero"/>
	<path id="Vector" d="M75.6802 31.1826C75.6802 30.6932 75.3286 30.3604 74.8207 30.3604L73.6876 30.3604L73.6876 32.0047L74.8207 32.0047C75.3286 32.0047 75.6802 31.6719 75.6802 31.1826ZM75.6411 34.1775L74.5471 32.4745L73.6876 32.4745L73.6876 34.1775L73.1602 34.1775L73.1602 29.8906L74.8793 29.8906C75.6606 29.8906 76.2272 30.3996 76.2272 31.1826C76.2272 31.9655 75.6997 32.3766 75.1137 32.4353L76.2662 34.1775L75.6411 34.1775Z" fill="#FFFFFF" fill-opacity="1.000000" fill-rule="nonzero"/>
	<path id="Vector" d="M77.9061 34.1766L77.9061 29.8701L80.7192 29.8701L80.7192 30.3595L78.4335 30.3595L78.4335 31.7297L80.6606 31.7297L80.6606 32.2191L78.4335 32.2191L78.4335 33.6872L80.7192 33.6872L80.7192 34.1766L77.9061 34.1766Z" fill="#FFFFFF" fill-opacity="1.000000" fill-rule="nonzero"/>
	<path id="Vector" d="M82.4 34.1766L82.4 29.8701L85.1935 29.8701L85.1935 30.3595L82.9274 30.3595L82.9274 31.7297L85.1544 31.7297L85.1544 32.2191L82.9274 32.2191L82.9274 33.6872L85.1935 33.6872L85.1935 34.1766L82.4 34.1766Z" fill="#FFFFFF" fill-opacity="1.000000" fill-rule="nonzero"/>
	<path id="Vector" d="M89.472 34.1766L87.8311 32.2386L87.4013 32.728L87.4013 34.1766L86.8738 34.1766L86.8738 29.8701L87.4013 29.8701L87.4013 32.1016L89.2963 29.8701L89.9799 29.8701L88.1827 31.9254L90.1362 34.1766L89.472 34.1766Z" fill="#FFFFFF" fill-opacity="1.000000" fill-rule="nonzero"/>
	<path id="Vector" d="M91.308 33.5704L91.6205 33.1594C91.894 33.4725 92.3629 33.7662 92.9684 33.7662C93.7303 33.7662 93.9843 33.3551 93.9843 33.0223C93.9843 31.9066 91.4447 32.533 91.4447 30.9866C91.4447 30.2819 92.0698 29.7925 92.9099 29.7925C93.574 29.7925 94.0819 30.0078 94.4336 30.3993L94.121 30.7908C93.8085 30.4385 93.3592 30.2819 92.8903 30.2819C92.3824 30.2819 92.0112 30.5559 92.0112 30.967C92.0112 31.9261 94.5508 31.3781 94.5508 32.9832C94.5508 33.6096 94.121 34.236 92.9684 34.236C92.2261 34.236 91.6791 33.9619 91.3275 33.5509L91.308 33.5704Z" fill="#FFFFFF" fill-opacity="1.000000" fill-rule="nonzero"/>
	<path id="Vector" d="M96.1529 34.1766L96.1529 29.8701L96.6999 29.8701L96.6999 34.1766L96.1529 34.1766Z" fill="#FFFFFF" fill-opacity="1.000000" fill-rule="nonzero"/>
	<path id="Vector" d="M101.642 32.0243C101.642 31.1042 101.056 30.3408 100.001 30.3408L99.063 30.3408L99.063 33.6881L100.001 33.6881C101.036 33.6881 101.642 32.9443 101.642 32.0243ZM98.5355 34.1775L98.5355 29.8906L100.001 29.8906C101.329 29.8906 102.189 30.8302 102.189 32.0438C102.189 33.2574 101.329 34.1971 100.001 34.1971L98.5355 34.1971L98.5355 34.1775Z" fill="#FFFFFF" fill-opacity="1.000000" fill-rule="nonzero"/>
	<path id="Vector" d="M103.85 34.1766L103.85 29.8701L106.663 29.8701L106.663 30.3595L104.377 30.3595L104.377 31.7297L106.604 31.7297L106.604 32.2191L104.377 32.2191L104.377 33.6872L106.663 33.6872L106.663 34.1766L103.85 34.1766Z" fill="#FFFFFF" fill-opacity="1.000000" fill-rule="nonzero"/>
</svg>
