<svg width="24.099823" height="24.099823" viewBox="0 0 24.0998 24.0998" fill="none" xmlns="http://www.w3.org/2000/svg" xmlns:xlink="http://www.w3.org/1999/xlink">
	<defs/>
	<path id="telegram" d="M19.3448 7.06708C19.4935 7.22046 19.54 7.44608 19.4639 7.64575L14.864 19.7207C14.7976 19.8949 14.6474 20.0237 14.465 20.0627C14.2827 20.1017 14.093 20.0457 13.9611 19.9138L8.87793 14.8306L3.82614 13.1467C3.60266 13.0722 3.45145 12.8636 3.45007 12.6281C3.44873 12.3925 3.59753 12.1822 3.82016 12.1052L18.7701 6.93021C18.972 6.86032 19.1961 6.9137 19.3448 7.06708ZM10.0256 14.4227L14.1384 18.5354L17.7941 8.93906L10.0256 14.4227ZM15.4606 9.23984L5.70984 12.6151L9.08508 13.7402L15.4606 9.23984Z" fill="#FFFFFF" fill-opacity="1.000000" fill-rule="nonzero"/>
	<path id="telegram" d="M0 12.0499C0 5.39474 5.39474 0 12.0499 0C18.7051 0 24.0998 5.39474 24.0998 12.0499C24.0998 18.7051 18.7051 24.0998 12.0499 24.0998C5.39474 24.0998 0 18.7051 0 12.0499ZM12.0499 1.10001C6.00226 1.10001 1.10001 6.00226 1.10001 12.0499C1.10001 18.0976 6.00226 22.9998 12.0499 22.9998C18.0976 22.9998 22.9998 18.0976 22.9998 12.0499C22.9998 6.00226 18.0976 1.10001 12.0499 1.10001Z" fill="#FFFFFF" fill-opacity="1.000000" fill-rule="nonzero"/>
</svg>
